<svg xmlns="http://www.w3.org/2000/svg" xmlns:xlink="http://www.w3.org/1999/xlink" fill="none" version="1.1" width="14" height="14" viewBox="0 0 14 14"><defs><clipPath id="master_svg0_3764_087884/3764_085414/3_0732"><rect x="0" y="0" width="14" height="14" rx="0"/></clipPath></defs><g clip-path="url(#master_svg0_3764_087884/3764_085414/3_0732)"><g><path d="M1.43148096875,4.631189C1.59556796875,4.4671515,1.8180869687499999,4.375,2.05010596875,4.375C2.28212296875,4.375,2.50464296875,4.4671515,2.66873296875,4.631189C2.66873296875,4.631189,6.99998296875,8.96244,6.99998296875,8.96244C6.99998296875,8.96244,11.33129296875,4.631189,11.33129296875,4.631189C11.49629296875,4.4718004,11.71729296875,4.3836045,11.94669296875,4.3855981C12.17609296875,4.3875918,12.39559296875,4.479615,12.55779296875,4.641847C12.72009296875,4.804079,12.81209296875,5.0235389999999995,12.81409296875,5.252966C12.81599296875,5.48238,12.72779296875,5.70341,12.56849296875,5.86844C12.56849296875,5.86844,7.61861296875,10.81832,7.61861296875,10.81832C7.45452296875,10.98235,7.23200296875,11.0745,6.99998296875,11.0745C6.76796296875,11.0745,6.54544296875,10.98235,6.38136296875,10.81832C6.38136296875,10.81832,1.43148096875,5.86844,1.43148096875,5.86844C1.26744356875,5.70435,1.17529296875,5.48183,1.17529296875,5.249813C1.17529296875,5.017794,1.26744356875,4.795275,1.43148096875,4.631189C1.43148096875,4.631189,1.43148096875,4.631189,1.43148096875,4.631189C1.43148096875,4.631189,1.43148096875,4.631189,1.43148096875,4.631189Z" fill="#6B7184" fill-opacity="1"/></g></g></svg>