<svg xmlns="http://www.w3.org/2000/svg" xmlns:xlink="http://www.w3.org/1999/xlink" fill="none" version="1.1" width="14" height="14" viewBox="0 0 14 14"><g><path d="M9.33333,12.7272L9.33333,1.27273L1.55556,1.27273L1.55556,12.7272L9.33333,12.7272ZM10.8889,2.54544L13.2223,2.54544C13.6517,2.54544,14,2.83035,14,3.18181L14,13.3636C14,13.7151,13.6517,14,13.2223,14L0.837613,14C0.375013,14,0,13.6866,0,13.3L0,0.700001C0,0.3134,0.375013,0,0.837613,0L10.0513,0C10.5139,0,10.8889,0.3134,10.8889,0.700001L10.8889,2.54544ZM10.8889,3.81817L10.8889,12.7272L12.4444,12.7272L12.4444,3.81817L10.8889,3.81817ZM3.11111,3.81817L4.66667,3.81817L4.66667,5.0909L3.11111,5.0909L3.11111,3.81817ZM6.22223,3.81817L7.77777,3.81817L7.77777,5.0909L6.22223,5.0909L6.22223,3.81817ZM3.11111,6.36361L4.66667,6.36361L4.66667,7.63634L3.11111,7.63634L3.11111,6.36361ZM6.22223,6.36361L7.77777,6.36361L7.77777,7.63634L6.22223,7.63634L6.22223,6.36361ZM4.27777,10.1818L6.61111,10.1818C6.82589,10.1818,7,10.3242,7,10.4999L7,12.7272L3.88889,12.7272L3.88889,10.4999C3.88889,10.3242,4.063,10.1818,4.27777,10.1818Z" fill="#6B7184" fill-opacity="1"/></g></svg>