<svg xmlns="http://www.w3.org/2000/svg" xmlns:xlink="http://www.w3.org/1999/xlink" fill="none" version="1.1" width="117.14794921875" height="121.8663330078125" viewBox="0 0 117.14794921875 121.8663330078125"><defs><linearGradient x1="0.6843297481536865" y1="0.058302320539951324" x2="0.6290951209394059" y2="0.4258079738132788" id="master_svg0_690_41758"><stop offset="0.28901700861752033%" stop-color="#606673" stop-opacity="0"/><stop offset="100%" stop-color="#373C47" stop-opacity="1"/></linearGradient><linearGradient x1="-0.3156702220439911" y1="0.058302320539951324" x2="-0.3709048492582717" y2="0.42580797381327873" id="master_svg1_887_046945"><stop offset="0.28901700861752033%" stop-color="#606673" stop-opacity="0"/><stop offset="100%" stop-color="#373C47" stop-opacity="1"/></linearGradient><linearGradient x1="0.22419212758541107" y1="0.6411315202713013" x2="0.3589269932055988" y2="0.11916045335207552" id="master_svg2_887_046975"><stop offset="0.28901700861752033%" stop-color="#6C80AA" stop-opacity="0"/><stop offset="100%" stop-color="#5D6A86" stop-opacity="1"/></linearGradient><linearGradient x1="0.5396924018859863" y1="0.8287037014961243" x2="0.5511408799190438" y2="0.15838260052206415" id="master_svg3_887_046959"><stop offset="0.28901700861752033%" stop-color="#314F91" stop-opacity="0"/><stop offset="100%" stop-color="#324264" stop-opacity="1"/></linearGradient><linearGradient x1="0.5000799298286438" y1="0.03481012582778931" x2="0.5000799298286438" y2="0.5965189933776855" id="master_svg4_690_41723"><stop offset="0%" stop-color="#B0BACC" stop-opacity="1"/><stop offset="100%" stop-color="#969EAE" stop-opacity="1"/></linearGradient><linearGradient x1="0.5001598000526428" y1="0.03481012582778931" x2="0.5001598000526428" y2="0.594936728477478" id="master_svg5_690_41748"><stop offset="0%" stop-color="#B0BACC" stop-opacity="1"/><stop offset="100%" stop-color="#969EAE" stop-opacity="1"/></linearGradient><linearGradient x1="0.7051383256912231" y1="0.09561304748058319" x2="0.45925956088731046" y2="0.5845824875192869" id="master_svg6_887_046932"><stop offset="0%" stop-color="#B0BACC" stop-opacity="1"/><stop offset="100%" stop-color="#969EAE" stop-opacity="1"/></linearGradient></defs><g><g><path d="M104.11000311279297,44.736349487304686C106.22200311279298,44.736349487304686,107.93500311279297,43.026349487304685,107.93500311279297,40.90634948730469C107.93500311279297,38.79634948730469,106.22200311279298,37.08634948730469,104.11000311279297,37.08634948730469C101.99800311279297,37.08634948730469,100.28600311279297,38.79634948730469,100.28600311279297,40.90634948730469C100.28600311279297,43.026349487304685,101.99800311279297,44.736349487304686,104.11000311279297,44.736349487304686Z" fill="#EAEEF9" fill-opacity="1"/></g><g><path d="M2.517,65.43634918212891C3.906,65.43634918212891,5.033,64.3163491821289,5.033,62.916349182128904C5.033,61.526349182128904,3.906,60.406349182128906,2.517,60.406349182128906C1.127,60.406349182128906,0,61.526349182128904,0,62.916349182128904C0,64.3163491821289,1.127,65.43634918212891,2.517,65.43634918212891Z" fill="#EAEEF9" fill-opacity="1"/></g><g><path d="M14.083000389099121,110.71634582519532C15.473000389099122,110.71634582519532,16.59900038909912,109.58634582519531,16.59900038909912,108.19634582519531C16.59900038909912,106.80634582519531,15.473000389099122,105.67634582519531,14.083000389099121,105.67634582519531C12.69300038909912,105.67634582519531,11.567000389099121,106.80634582519531,11.567000389099121,108.19634582519531C11.567000389099121,109.58634582519531,12.69300038909912,110.71634582519532,14.083000389099121,110.71634582519532Z" fill="#EAEEF9" fill-opacity="1"/></g><g><path d="M27.533000946044922,110.71634643554688L62.84200094604492,99.65634643554688L62.84200094604492,54.286346435546875L27.533000946044922,65.26634643554688L27.533000946044922,110.71634643554688Z" fill="#B7BFCD" fill-opacity="1"/></g><g style="opacity:0.4000000059604645;"><path d="M98.15099905395508,110.71634643554688L62.84199905395508,99.65634643554688L62.84199905395508,54.286346435546875L98.15099905395508,65.26634643554688L98.15099905395508,110.71634643554688Z" fill="#6D7C9A" fill-opacity="1"/></g><g style="opacity:0.12999999523162842;"><g><path d="M27.533000946044922,110.71635025024415L62.84200094604492,99.65635025024415L62.84200094604492,54.28635025024414L27.533000946044922,65.26635025024414L27.533000946044922,110.71635025024415Z" fill="url(#master_svg0_690_41758)" fill-opacity="1"/></g><g><path d="M98.15100286865234,110.71635025024415L62.842002868652344,99.65635025024415L62.842002868652344,54.28635025024414L98.15100286865234,65.26635025024414L98.15100286865234,110.71635025024415Z" fill="url(#master_svg1_887_046945)" fill-opacity="1"/></g></g><g><path d="M62.84200094604492,121.86634796142579L27.533000946044922,110.79634796142578L27.533000946044922,65.43634796142578L62.84200094604492,76.50634796142577L62.84200094604492,121.86634796142579Z" fill="#EDF1F9" fill-opacity="1"/></g><g><path d="M62.84199905395508,121.86634796142579L98.15099905395508,110.79634796142578L98.15099905395508,65.43634796142578L62.84199905395508,76.50634796142577L62.84199905395508,121.86634796142579Z" fill="#DAE1ED" fill-opacity="1"/></g><g style="opacity:0.09000000357627869;"><path d="M54.84200094604492,113.86634796142579L27.533000946044922,110.79634796142578L27.533000946044922,65.43634796142578L62.84200094604492,76.50634796142577L54.84200094604492,113.86634796142579Z" fill="url(#master_svg2_887_046975)" fill-opacity="1"/></g><g style="opacity:0.20000000298023224;"><path d="M70.84199905395508,105.86634796142579L98.15099905395508,110.79634796142578L98.15099905395508,65.43634796142578L62.84199905395508,76.50634796142577L70.84199905395508,105.86634796142579Z" fill="url(#master_svg3_887_046959)" fill-opacity="1"/></g><g><path d="M62.842000007629395,54.286348266601564L46.241000007629395,41.86634826660156L10.342000007629395,53.94634826660156L27.533000007629393,65.26634826660157L62.842000007629395,54.286348266601564Z" fill="#DAE1ED" fill-opacity="1"/></g><g><path d="M62.84199905395508,54.286348266601564L79.44299905395508,41.86634826660156L115.34199905395508,53.94634826660156L98.15099905395508,65.26634826660157L62.84199905395508,54.286348266601564Z" fill="#DAE1ED" fill-opacity="1"/></g><g><path d="M27.533000007629393,65.43634796142578L62.842000007629395,76.50634796142577L45.229000007629395,87.73634796142578L10.342000007629395,76.16634796142579L27.533000007629393,65.43634796142578Z" fill="#EFF4FD" fill-opacity="1"/></g><g><path d="M98.15099905395508,65.43634796142578L62.84199905395508,76.50634796142577L80.45399905395507,87.73634796142578L115.34199905395508,76.16634796142579L98.15099905395508,65.43634796142578Z" fill="#EDF1F9" fill-opacity="1"/></g><g><path d="M74.38558096313477,12.440298381042481L73.63088096313476,10.399507381042481L71.75508096313476,11.09318938104248L72.50978096313477,13.133988381042482L74.38558096313477,12.440298381042481ZM77.21518096313477,20.22418838104248Q76.67438096313477,18.64480838104248,75.80578096313477,16.27880838104248L73.92828096313477,16.96806838104248Q74.78928096313476,19.31334838104248,75.32308096313477,20.87214838104248L77.21518096313477,20.22418838104248ZM79.40518096313477,28.10964838104248Q79.02728096313476,26.18084838104248,78.46358096313477,24.18204838104248L76.53868096313477,24.72494838104248Q77.08028096313477,26.645248381042478,77.44258096313476,28.494148381042482L79.40518096313477,28.10964838104248ZM80.40838096313476,36.46844838104248Q80.26508096313476,34.21244838104248,80.05048096313476,32.333548381042476L78.06338096313476,32.56044838104248Q78.27228096313476,34.38954838104248,78.41248096313477,36.595348381042484L80.40838096313476,36.46844838104248ZM64.96282096313476,38.23264838104248Q62.79966096313477,37.279448381042485,60.329510963134766,37.69694838104248L60.66282096313476,39.66894838104248Q62.54180096313477,39.351348381042484,64.15634096313477,40.062848381042485L64.96282096313476,38.23264838104248ZM55.76173096313477,40.12224838104248Q54.41847596313477,41.760348381042476,54.08780696313477,44.00424838104248L56.06644096313477,44.29584838104248Q56.31389096313477,42.61664838104248,57.288950963134766,41.41414838104248Q57.394810963134766,41.30134838104248,57.50813096313477,41.19414838104248L56.133970963134765,39.74094838104248Q55.961884963134764,39.903748381042476,55.80178596313477,40.07634838104248L55.781057963134764,40.09874838104248L55.76173096313477,40.12224838104248ZM80.56298096313476,40.985948381042476Q80.57138096313477,40.84514838104248,80.57628096313476,40.76344838104248L78.57998096313477,40.64334838104248Q78.57568096313477,40.71444838104248,78.56658096313477,40.86644838104248Q78.41308096313477,43.43014838104248,78.23448096313476,44.68024838104248L80.21438096313477,44.96314838104248Q80.40458096313476,43.63164838104248,80.56298096313476,40.985948381042476ZM70.88138096313476,44.86194838104248Q70.12758096313476,42.60144838104248,68.67748096313477,40.92524838104248L67.16498096313477,42.23374838104248Q68.35568096313477,43.61014838104248,68.98408096313477,45.49454838104248L70.88138096313476,44.86194838104248ZM55.07554066313477,49.69644838104248Q55.76604096313476,51.16734838104248,56.81215096313477,52.43454838104248L58.354470963134766,51.16124838104248Q57.460980963134766,50.07894838104248,56.87521096313476,48.82354838104248L56.862350963134766,48.79594838104248L56.84785096313477,48.76924838104248Q56.61912096313477,48.34794838104248,56.447880963134764,47.88574838104248L54.572461963134764,48.58054838104248Q54.787859963134764,49.16194838104248,55.07554066313477,49.69644838104248ZM78.76648096313477,49.77614838104248Q78.90778096313477,49.51154838104248,79.03658096313477,49.23354838104248L77.22178096313476,48.39294838104248Q77.11228096313476,48.62934838104248,76.99208096313477,48.85304838104248L76.97948096313476,48.87644838104248L76.96818096313477,48.90054838104248Q76.29878096313476,50.32324838104248,75.12558096313477,51.54744838104248L76.56958096313477,52.93114838104248Q77.95928096313477,51.48094838104248,78.76648096313477,49.77614838104248ZM71.29218096313477,53.55004838104248Q71.68798096313476,51.30574838104248,71.61688096313476,49.20474838104248L69.61798096313477,49.272348381042484Q69.68208096313477,51.16434838104248,69.32258096313477,53.20264838104248L71.29218096313477,53.55004838104248ZM60.18180096313476,55.34504838104248Q62.14153096313476,56.53324838104248,64.33721096313477,56.97624838104248L64.73274096313477,55.01574838104248Q62.87957096313477,54.64184838104248,61.218680963134766,53.63484838104248L60.18180096313476,55.34504838104248ZM68.80588096313477,57.04834838104248Q70.98498096313476,56.68434838104248,73.01878096313476,55.60314838104248L72.07988096313477,53.83714838104248Q70.33398096313476,54.76534838104248,68.47628096313477,55.075648381042484L68.80588096313477,57.04834838104248ZM68.97308096313476,61.65104838104248Q69.72518096313476,59.75874838104248,70.26188096313477,57.84714838104248L68.33628096313477,57.30654838104248Q67.82788096313476,59.11734838104248,67.11448096313477,60.91234838104248L68.97308096313476,61.65104838104248ZM65.85748096313476,69.20064838104248Q66.55498096313477,67.38594838104248,67.36118096313477,65.47724838104247L65.51878096313476,64.69904838104247Q64.69986096313477,66.63784838104249,63.990620963134766,68.48314838104248L65.85748096313476,69.20064838104248ZM63.74437096313476,75.08234838104248L64.45797096313477,73.01294838104248L62.567220963134766,72.36094838104248L61.853620963134766,74.43034838104248L63.74437096313476,75.08234838104248Z" fill-rule="evenodd" fill="#ABB5CC" fill-opacity="1"/></g><g><path d="M78.71400061035156,3.63635C78.70200061035156,5.60635,76.86500061035156,6.81635,74.53600061035156,6.18635C72.08300061035156,5.76635,70.34700061035156,5.33635,70.23500061035156,3.57635C70.29100061035156,1.76635,72.26300061035157,1.06635,74.57000061035156,0.266348C77.33700061035157,-0.833652,78.55700061035157,1.70635,78.71400061035156,3.63635Z" fill="#DAE2EB" fill-opacity="1"/></g><g><path d="M62.86499986547852,9.676344998474121C64.10799586547851,10.95634499847412,66.72799586547852,11.32634499847412,68.00499586547852,9.366344998474121C69.40599586547852,7.206344998474121,70.60399586547851,5.626344998474121,69.31699586547852,4.186347998474121C68.07399586547851,2.906347998474121,66.86399586547851,3.7663479984741213,64.09699586547852,4.866344998474121C61.87899986547851,5.996344998474122,61.40899986547851,8.266344998474121,62.86499986547852,9.676344998474121Z" fill="#DAE2EB" fill-opacity="1"/></g><g><path d="M68.60000214355469,1.5063482404937745C69.73200214355468,1.0263482404937745,71.08700214355468,1.3763483404937744,71.69100214355468,2.2963492404937744C71.9490021435547,2.5863492404937745,72.25100214355469,3.0363492404937746,72.34100214355469,3.3763492404937745C73.30400214355468,5.6263492404937745,73.00100214355469,7.856349240493774,71.7020021435547,8.376349240493774C70.27900214355469,9.116349240493776,68.31900214355468,7.856349240493774,67.56900114355469,5.726349240493774C67.39000114355468,5.056349240493774,67.30100114355469,4.726349240493775,67.16600144355469,4.216349240493774C67.02100114355468,3.0063492404937744,67.46900114355469,1.9863482404937745,68.60000214355469,1.5063482404937745C68.76800214355468,1.4663482404937744,68.60000214355469,1.5063482404937745,68.60000214355469,1.5063482404937745Z" fill="#989FB0" fill-opacity="1"/></g><g><path d="M16.599000007629392,37.73634857177734L14.409000007629395,37.73634857177734L14.409000007629395,35.546348571777344L12.532000007629394,35.546348571777344L12.532000007629394,37.73634857177734L10.342000007629395,37.73634857177734L10.342000007629395,39.676348571777346L12.532000007629394,39.676348571777346L12.532000007629394,41.866348571777344L14.409000007629395,41.866348571777344L14.409000007629395,39.676348571777346L16.599000007629392,39.676348571777346L16.599000007629392,37.73634857177734Z" fill="url(#master_svg4_690_41723)" fill-opacity="1"/></g><g><path d="M21.410000427246093,92.68634552001953L19.22000042724609,92.68634552001953L19.22000042724609,90.49634552001953L17.343000427246093,90.49634552001953L17.343000427246093,92.68634552001953L15.152000427246094,92.68634552001953L15.152000427246094,94.62634552001953L17.343000427246093,94.62634552001953L17.343000427246093,96.81634552001952L19.22000042724609,96.81634552001952L19.22000042724609,94.62634552001953L21.410000427246093,94.62634552001953L21.410000427246093,92.68634552001953Z" fill="url(#master_svg5_690_41748)" fill-opacity="1"/></g><g><path d="M117.14799926757813,92.80634826660156L114.46799926757812,91.45634826660157L115.82099926757813,88.77634826660156L113.52399926757812,87.61634826660156L112.17099926757813,90.29634826660157L109.49199926757812,88.93634826660156L108.29299926757812,91.31634826660157L110.97299926757813,92.66634826660156L109.61999926757812,95.34634826660157L111.91699926757812,96.50634826660156L113.26999926757813,93.82634826660156L115.94899926757813,95.17634826660156L117.14799926757813,92.80634826660156Z" fill="url(#master_svg6_887_046932)" fill-opacity="1"/></g></g></svg>