<svg xmlns="http://www.w3.org/2000/svg" xmlns:xlink="http://www.w3.org/1999/xlink" fill="none" version="1.1" width="160" height="160" viewBox="0 0 160 160"><defs><clipPath id="master_svg0_6527_300383"><rect x="0" y="0" width="160" height="160" rx="0"/></clipPath></defs><g style="opacity:0.25;" clip-path="url(#master_svg0_6527_300383)"><g><path d="M30.70873140625,56.08633125Q33.075071406250004,50.19213125,35.94713140625,45.17293125C38.98829140625,39.86203125,43.004691406250004,35.32263125,47.939391406249996,31.67903125C52.90509140625,28.00953125,58.82699140625,25.71913125,64.72299140625,24.03973125Q74.52489140624999,21.24713125,84.62719140625,19.92323125C85.18299140625,19.85073125,85.86649140624999,19.86633125,86.48949140625001,19.76623125C87.14709140625,19.66093125,87.72189140625,19.73343125,88.32949140625,19.62293125Q89.01469140625,19.49863125,89.71029140625001,19.49353125Q90.38679140625,19.48663125,90.99269140625,19.40373125C91.81249140625,19.29323125,92.67549140625,19.43303125,93.46779140625,19.27433125C94.59829140625,19.04473125,96.00499140625,19.22423125,97.29769140625,19.07583125C99.11689140625,18.86693125,100.96889140625,19.12063125,102.78119140625,18.93423125C105.33569140625,18.67193125,108.07139140625,18.80313125,110.64659140625,18.81003125C112.72469140625,18.81343125,115.09449140625,18.63053125,117.32969140625,18.63743125C118.25139140625,18.64083125,119.25069140625,18.45103125,120.23969140625,18.45793125Q120.74369140625,18.46133125,121.39089140625,18.35773125C121.93809140625,18.27143125,122.55079140625,18.29393125,123.04269140625,18.23523125Q124.45459140625,18.06783125,125.86649140625,17.89693125C135.82069140625,16.69563125,145.50269140625,13.13663125,153.16869140625,6.43804125C155.17769140625,4.68097125,156.77169140625,2.82552125,158.25669140625,0.64213725Q158.43969140625,0.37115525,158.43569140625,0.69909425C158.42869140625,1.34289225,158.30869140625,1.96943125,158.27169140625,2.61495125C157.91969140625,8.85271125,155.50869140625,14.73323125,152.24269140625,19.99233125C150.56769140625,22.69173125,148.74069140625,24.85273125,146.22769140625002,26.73753125Q140.10569140625,31.33213125,132.82069140625,34.01253125Q128.16569140625,35.72653125,124.44419140625,36.97093125C115.32409140625,40.02253125,105.93809140625,41.67603125,95.57689140625,43.24493125C85.27439140625,44.80523125,75.41039140625,47.55653125,64.12229140625,50.87563125Q56.92839140625,52.99163125,50.01229140625,55.89303125C44.998291406250004,57.99873125,40.01189140625,61.41623125,36.81009140625,65.80203125C32.60387140625,71.56683125,29.57302140625,78.31203125,27.427601406249998,85.03133125Q27.25845640625,85.55783125,27.15317340625,85.01583125C26.88909240625,83.67473125,26.63192040625,82.33013125,26.58359340625,81.01843125C26.56805740625,80.57313125,26.42997930625,80.16403125,26.42480150625,79.69803125Q26.40063766625,77.34723125,26.41271827625,74.99473125Q26.41789605625,74.15933125,26.53008740625,73.55343125C26.60602940625,73.14783125,26.55079840625,72.80263125,26.59222340625,72.41433125Q27.46558140625,64.16573125,30.70873140625,56.08633125Z" fill="#FFFFFF" fill-opacity="1"/></g><g><path d="M36.62032265625,117.25744296875C33.25982265625,124.07164296875,30.37052265625,131.66774296875002,27.75212265625,138.57864296875C26.81322265625,141.05894296875,25.98812265625,143.01274296875,24.84552265625,145.06664296875C23.15922265625,148.09414296875002,20.64272265625,150.75214296874998,17.97612265625,152.94904296875C14.09432265625,156.15104296875,9.233902656249999,158.49504296875,4.140482656250001,158.70404296875Q3.20154265625,158.74204296875,2.37824165625,158.57404296875Q1.73962265625,158.44304296875,2.35580365625,158.22704296875Q5.3383326562499995,157.18304296875,8.18104265625,155.27104296875C14.08392265625,151.29904296875,17.25462265625,145.27554296875002,18.27642265625,138.31804296875Q18.80282265625,134.73484296875,19.02722265625,131.73504296875Q19.02892265625,131.72294296875,19.11692265625,131.01014296875002C19.18942265625,130.43024296875,19.11692265625,129.83474296875,19.26712265625,129.19954296875C19.35692265625,128.81814296875,19.30342265625,128.49884296875,19.34822265625,128.13114296875Q20.36482265625,119.76354296875,22.23242265625,111.54604296875Q23.37672265625,106.51304296875,25.35992265625,101.35924296875001C27.84362265625,94.90054296875,32.20522265625,89.80544296875,37.16742265625,85.12454296875Q41.58432265625,80.95964296875,46.88832265625,77.94604296874999Q58.01232265625,71.62894296875,70.59482265625,68.52384296875Q80.61432265625,66.05054296875,90.33682265625,64.40044296875C92.97582265625,63.95344296875,95.75472265625,63.60474296875,98.46972265625,63.22854296875Q103.28722265625,62.56054296875,108.07622265625,61.70964296875Q109.63522265625,61.43344296875,111.45222265625,60.99850296875C114.70322265625,60.22353296875,117.61822265625,59.62288296875,121.08022265625,58.40260296875C125.51122265625,56.84230296875,129.91022265625,54.50185296875,133.27322265625,51.18275786875Q133.36722265625,51.08955246875,133.35522265625,51.22072996875C132.43022265625,61.49214296875,126.35822265625,71.15774296875,117.51822265625,76.46864296875C107.93122265625,82.22654296875,97.37372265625,85.96164296875,86.51202265625,88.22444296875C80.49172265625,89.47744296875,74.41622265625,90.58384296874999,68.49432265625,92.25464296875C64.53662265625,93.36964296875,60.74112265625,94.93854296875,57.02682265625,96.81124296875001C50.06242265625,100.32534296875,44.05932265625,105.03384296875001,39.81172265625,111.57024296875Q38.20302265625,114.04704296874999,36.62032265625,117.25744296875Z" fill="#FFFFFF" fill-opacity="1"/></g></g></svg>